<svg xmlns="http://www.w3.org/2000/svg" viewBox="0 0 1920 1080" width="1920" height="1080" role="img">
<defs>
      <linearGradient id="bg" x1="0" y1="0" x2="0" y2="1">
        <stop offset="0" stop-color="#16364A"/><stop offset="1" stop-color="#0b1d28"/>
      </linearGradient>
      <radialGradient id="glow" cx="0.5" cy="1" r="0.9">
        <stop offset="0" stop-color="#e2703a" stop-opacity="0.55"/>
        <stop offset="0.5" stop-color="#e2703a" stop-opacity="0.12"/>
        <stop offset="1" stop-color="#e2703a" stop-opacity="0"/>
      </radialGradient>
    </defs>
<rect width="1920" height="1080" fill="url(#bg)"/>
<rect y="497" width="1920" height="583" fill="#0f2634" opacity="0.5"/>
<rect y="495" width="1920" height="3" fill="#d0a869" opacity="0.35"/>
<rect x="576" y="580" width="768" height="1.5" fill="#d0a869" opacity="0.18"/>
<rect x="576" y="663" width="768" height="1.5" fill="#d0a869" opacity="0.16"/>
<rect x="576" y="747" width="768" height="1.5" fill="#d0a869" opacity="0.14"/>
<rect x="576" y="830" width="768" height="1.5" fill="#d0a869" opacity="0.12"/>
<rect x="576" y="913" width="768" height="1.5" fill="#d0a869" opacity="0.10"/>
<rect x="576" y="997" width="768" height="1.5" fill="#d0a869" opacity="0.08"/>
<rect width="1920" height="1080" fill="url(#glow)"/>
<rect x="326" y="756" width="38" height="302" rx="19" fill="#c0392b" opacity="0.35"/>
<rect x="538" y="756" width="38" height="302" rx="19" fill="#c0392b" opacity="0.35"/>
<rect x="749" y="756" width="38" height="302" rx="19" fill="#c0392b" opacity="0.35"/>
<rect x="960" y="756" width="38" height="302" rx="19" fill="#c0392b" opacity="0.35"/>
<rect x="1171" y="756" width="38" height="302" rx="19" fill="#c0392b" opacity="0.35"/>
<rect x="1382" y="756" width="38" height="302" rx="19" fill="#c0392b" opacity="0.35"/>
<rect x="1594" y="756" width="38" height="302" rx="19" fill="#c0392b" opacity="0.35"/>
<circle cx="1146.3" cy="739.4" r="2.1" fill="#d0a869" opacity="0.60"/>
<circle cx="197.2" cy="1069.1" r="4.1" fill="#e2703a" opacity="0.37"/>
<circle cx="657.0" cy="970.2" r="3.9" fill="#e2703a" opacity="0.64"/>
<circle cx="18.9" cy="804.4" r="3.3" fill="#e2703a" opacity="0.54"/>
<circle cx="14.8" cy="867.9" r="1.5" fill="#d0a869" opacity="0.70"/>
<circle cx="856.9" cy="1063.3" r="2.8" fill="#d0a869" opacity="0.65"/>
<circle cx="818.7" cy="785.5" r="3.6" fill="#d0a869" opacity="0.32"/>
<circle cx="1410.2" cy="901.8" r="1.3" fill="#d0a869" opacity="0.40"/>
<circle cx="1175.2" cy="795.7" r="1.1" fill="#e2703a" opacity="0.69"/>
<circle cx="921.4" cy="792.8" r="1.7" fill="#e2703a" opacity="0.33"/>
<circle cx="526.0" cy="990.3" r="1.8" fill="#d0a869" opacity="0.54"/>
<circle cx="1683.6" cy="908.2" r="2.1" fill="#d0a869" opacity="0.26"/>
<circle cx="520.2" cy="1066.5" r="2.6" fill="#d0a869" opacity="0.58"/>
<circle cx="901.0" cy="855.3" r="2.3" fill="#e2703a" opacity="0.62"/>
<circle cx="499.5" cy="946.9" r="3.5" fill="#d0a869" opacity="0.25"/>
<circle cx="995.3" cy="722.3" r="3.4" fill="#d0a869" opacity="0.71"/>
<circle cx="614.2" cy="701.8" r="1.3" fill="#d0a869" opacity="0.56"/>
<circle cx="1806.1" cy="1030.0" r="2.0" fill="#d0a869" opacity="0.44"/>
<circle cx="1472.7" cy="627.1" r="2.1" fill="#e2703a" opacity="0.34"/>
<circle cx="1580.1" cy="1078.0" r="2.2" fill="#d0a869" opacity="0.52"/>
<circle cx="251.3" cy="727.1" r="4.0" fill="#d0a869" opacity="0.38"/>
<circle cx="1299.0" cy="920.1" r="2.2" fill="#e2703a" opacity="0.33"/>
<circle cx="1263.1" cy="748.7" r="1.4" fill="#e2703a" opacity="0.70"/>
<circle cx="1404.2" cy="1079.7" r="1.7" fill="#d0a869" opacity="0.71"/>
<circle cx="343.9" cy="961.5" r="2.7" fill="#e2703a" opacity="0.50"/>
<circle cx="1091.2" cy="817.0" r="3.2" fill="#d0a869" opacity="0.46"/>
<circle cx="104.6" cy="967.7" r="2.5" fill="#d0a869" opacity="0.57"/>
<circle cx="232.8" cy="1025.8" r="2.6" fill="#e2703a" opacity="0.37"/>
<circle cx="1123.7" cy="1050.7" r="2.1" fill="#e2703a" opacity="0.63"/>
<circle cx="807.4" cy="950.5" r="2.5" fill="#e2703a" opacity="0.68"/>
<circle cx="260.4" cy="666.4" r="3.7" fill="#d0a869" opacity="0.45"/>
<circle cx="534.6" cy="784.5" r="2.8" fill="#d0a869" opacity="0.63"/>
<circle cx="1153.1" cy="930.3" r="2.1" fill="#e2703a" opacity="0.30"/>
<circle cx="575.4" cy="931.4" r="2.8" fill="#d0a869" opacity="0.46"/>
<g transform="translate(960.0,432.0)" opacity="0.1" fill="none" stroke="#d0a869" stroke-width="27.0" stroke-linecap="round">
      <path d="M0,270 C -270,108 -243,-162 0,-270 C 243,-162 270,108 0,270 Z"/>
      <path d="M0,173 C -151,43 -140,-108 0,-173 C 151,-108 140,43 0,173 Z"/>
    </g>
<filter id="g"><feTurbulence type="fractalNoise" baseFrequency="0.9" numOctaves="2" stitchTiles="stitch"/><feColorMatrix type="saturate" values="0"/></filter><rect width="1920" height="1080" filter="url(#g)" opacity="0.05"/>
</svg>