<svg xmlns="http://www.w3.org/2000/svg" viewBox="0 0 1000 800" width="1000" height="800" role="img">
<defs>
      <linearGradient id="bg" x1="0" y1="0" x2="0" y2="1">
        <stop offset="0" stop-color="#16364A"/><stop offset="1" stop-color="#0f2634"/>
      </linearGradient>
      <radialGradient id="glow" cx="0.5" cy="1" r="0.9">
        <stop offset="0" stop-color="#e2703a" stop-opacity="0.55"/>
        <stop offset="0.5" stop-color="#e2703a" stop-opacity="0.12"/>
        <stop offset="1" stop-color="#e2703a" stop-opacity="0"/>
      </radialGradient>
    </defs>
<rect width="1000" height="800" fill="url(#bg)"/>
<rect width="1000" height="800" fill="url(#glow)"/>
<rect x="170" y="560" width="20" height="224" rx="10" fill="#c0392b" opacity="0.35"/>
<rect x="280" y="560" width="20" height="224" rx="10" fill="#c0392b" opacity="0.35"/>
<rect x="390" y="560" width="20" height="224" rx="10" fill="#c0392b" opacity="0.35"/>
<rect x="500" y="560" width="20" height="224" rx="10" fill="#c0392b" opacity="0.35"/>
<rect x="610" y="560" width="20" height="224" rx="10" fill="#c0392b" opacity="0.35"/>
<rect x="720" y="560" width="20" height="224" rx="10" fill="#c0392b" opacity="0.35"/>
<rect x="830" y="560" width="20" height="224" rx="10" fill="#c0392b" opacity="0.35"/>
<circle cx="652.5" cy="577.4" r="2.1" fill="#e2703a" opacity="0.32"/>
<circle cx="723.4" cy="738.0" r="2.5" fill="#d0a869" opacity="0.62"/>
<circle cx="181.1" cy="450.9" r="2.0" fill="#e2703a" opacity="0.29"/>
<circle cx="992.8" cy="636.0" r="1.3" fill="#e2703a" opacity="0.65"/>
<circle cx="797.5" cy="501.7" r="3.7" fill="#e2703a" opacity="0.40"/>
<circle cx="799.0" cy="534.6" r="2.1" fill="#d0a869" opacity="0.39"/>
<circle cx="89.7" cy="707.6" r="1.4" fill="#d0a869" opacity="0.47"/>
<circle cx="836.2" cy="486.6" r="4.0" fill="#d0a869" opacity="0.44"/>
<circle cx="409.5" cy="457.8" r="1.2" fill="#d0a869" opacity="0.27"/>
<circle cx="494.2" cy="748.5" r="2.4" fill="#e2703a" opacity="0.30"/>
<circle cx="485.4" cy="562.5" r="1.6" fill="#d0a869" opacity="0.32"/>
<circle cx="735.1" cy="577.5" r="3.9" fill="#e2703a" opacity="0.65"/>
<circle cx="823.6" cy="563.7" r="2.4" fill="#e2703a" opacity="0.42"/>
<circle cx="280.8" cy="643.6" r="3.7" fill="#d0a869" opacity="0.37"/>
<circle cx="518.3" cy="773.3" r="3.3" fill="#d0a869" opacity="0.62"/>
<circle cx="423.6" cy="473.0" r="2.4" fill="#d0a869" opacity="0.48"/>
<circle cx="17.6" cy="514.3" r="2.8" fill="#d0a869" opacity="0.35"/>
<circle cx="364.8" cy="525.4" r="2.6" fill="#d0a869" opacity="0.68"/>
<circle cx="494.2" cy="545.0" r="4.0" fill="#d0a869" opacity="0.33"/>
<circle cx="60.2" cy="610.7" r="2.1" fill="#d0a869" opacity="0.65"/>
<circle cx="112.3" cy="537.2" r="2.4" fill="#e2703a" opacity="0.52"/>
<circle cx="989.0" cy="569.0" r="3.4" fill="#d0a869" opacity="0.45"/>
<g transform="translate(500.0,320.0)" opacity="0.14" fill="none" stroke="#d0a869" stroke-width="20.0" stroke-linecap="round">
      <path d="M0,200 C -200,80 -180,-120 0,-200 C 180,-120 200,80 0,200 Z"/>
      <path d="M0,128 C -112,32 -104,-80 0,-128 C 112,-80 104,32 0,128 Z"/>
    </g>
<filter id="g"><feTurbulence type="fractalNoise" baseFrequency="0.9" numOctaves="2" stitchTiles="stitch"/><feColorMatrix type="saturate" values="0"/></filter><rect width="1000" height="800" filter="url(#g)" opacity="0.05"/>
<text x="500" y="688" text-anchor="middle" font-family="Georgia, 'Cormorant Garamond', serif" font-size="22" letter-spacing="4.8" fill="#d0a869" opacity="0.85" style="text-transform:uppercase">Grillades</text>
  <text x="500" y="752" text-anchor="middle" font-family="Georgia, 'Cormorant Garamond', serif" font-style="italic" font-size="40" fill="#F6F0E4" opacity="0.95">La braise</text>
</svg>