<svg xmlns="http://www.w3.org/2000/svg" viewBox="0 0 1000 800" width="1000" height="800" role="img">
<defs>
      <linearGradient id="bg" x1="0" y1="0" x2="0" y2="1">
        <stop offset="0" stop-color="#16364A"/><stop offset="1" stop-color="#0f2634"/>
      </linearGradient>
      <radialGradient id="glow" cx="0.5" cy="1" r="0.9">
        <stop offset="0" stop-color="#B98D55" stop-opacity="0.55"/>
        <stop offset="0.5" stop-color="#B98D55" stop-opacity="0.12"/>
        <stop offset="1" stop-color="#B98D55" stop-opacity="0"/>
      </radialGradient>
    </defs>
<rect width="1000" height="800" fill="url(#bg)"/>
<rect y="368" width="1000" height="432" fill="#0f2634" opacity="0.5"/>
<rect y="366" width="1000" height="3" fill="#d0a869" opacity="0.35"/>
<rect x="300" y="430" width="400" height="1.5" fill="#d0a869" opacity="0.18"/>
<rect x="300" y="491" width="400" height="1.5" fill="#d0a869" opacity="0.16"/>
<rect x="300" y="553" width="400" height="1.5" fill="#d0a869" opacity="0.14"/>
<rect x="300" y="615" width="400" height="1.5" fill="#d0a869" opacity="0.12"/>
<rect x="300" y="677" width="400" height="1.5" fill="#d0a869" opacity="0.10"/>
<rect x="300" y="738" width="400" height="1.5" fill="#d0a869" opacity="0.08"/>
<rect width="1000" height="800" fill="url(#glow)"/>
<circle cx="680.2" cy="592.2" r="2.1" fill="#e2703a" opacity="0.67"/>
<circle cx="33.7" cy="531.1" r="3.3" fill="#d0a869" opacity="0.75"/>
<circle cx="600.5" cy="497.0" r="2.7" fill="#e2703a" opacity="0.36"/>
<circle cx="484.3" cy="476.0" r="3.6" fill="#d0a869" opacity="0.45"/>
<circle cx="192.5" cy="791.1" r="3.2" fill="#d0a869" opacity="0.50"/>
<circle cx="975.4" cy="588.1" r="3.3" fill="#e2703a" opacity="0.25"/>
<circle cx="921.3" cy="770.5" r="3.5" fill="#d0a869" opacity="0.55"/>
<circle cx="887.1" cy="755.9" r="3.7" fill="#d0a869" opacity="0.46"/>
<circle cx="808.2" cy="571.9" r="1.2" fill="#e2703a" opacity="0.56"/>
<circle cx="1.4" cy="469.1" r="1.1" fill="#d0a869" opacity="0.53"/>
<circle cx="591.1" cy="657.0" r="1.5" fill="#d0a869" opacity="0.46"/>
<circle cx="164.3" cy="529.9" r="3.3" fill="#d0a869" opacity="0.60"/>
<circle cx="100.0" cy="450.5" r="2.3" fill="#d0a869" opacity="0.34"/>
<circle cx="686.5" cy="648.6" r="2.8" fill="#d0a869" opacity="0.25"/>
<circle cx="647.3" cy="449.2" r="1.6" fill="#e2703a" opacity="0.56"/>
<circle cx="876.1" cy="442.0" r="3.6" fill="#e2703a" opacity="0.62"/>
<circle cx="866.4" cy="511.5" r="3.6" fill="#d0a869" opacity="0.25"/>
<circle cx="576.8" cy="766.5" r="2.9" fill="#e2703a" opacity="0.30"/>
<circle cx="857.8" cy="585.3" r="3.3" fill="#e2703a" opacity="0.32"/>
<circle cx="678.8" cy="516.7" r="2.1" fill="#d0a869" opacity="0.46"/>
<circle cx="103.0" cy="536.5" r="3.3" fill="#e2703a" opacity="0.59"/>
<circle cx="145.1" cy="512.8" r="2.4" fill="#d0a869" opacity="0.51"/>
<g transform="translate(500.0,320.0)" opacity="0.14" fill="none" stroke="#d0a869" stroke-width="20.0" stroke-linecap="round">
      <path d="M0,200 C -200,80 -180,-120 0,-200 C 180,-120 200,80 0,200 Z"/>
      <path d="M0,128 C -112,32 -104,-80 0,-128 C 112,-80 104,32 0,128 Z"/>
    </g>
<filter id="g"><feTurbulence type="fractalNoise" baseFrequency="0.9" numOctaves="2" stitchTiles="stitch"/><feColorMatrix type="saturate" values="0"/></filter><rect width="1000" height="800" filter="url(#g)" opacity="0.05"/>
<text x="500" y="688" text-anchor="middle" font-family="Georgia, 'Cormorant Garamond', serif" font-size="22" letter-spacing="4.8" fill="#d0a869" opacity="0.85" style="text-transform:uppercase">Produits de la mer</text>
  <text x="500" y="752" text-anchor="middle" font-family="Georgia, 'Cormorant Garamond', serif" font-style="italic" font-size="40" fill="#F6F0E4" opacity="0.95">Face au large</text>
</svg>