<svg xmlns="http://www.w3.org/2000/svg" viewBox="0 0 1000 800" width="1000" height="800" role="img">
<defs>
      <linearGradient id="bg" x1="0" y1="0" x2="0" y2="1">
        <stop offset="0" stop-color="#16364A"/><stop offset="1" stop-color="#0f2634"/>
      </linearGradient>
      <radialGradient id="glow" cx="0.5" cy="1" r="0.9">
        <stop offset="0" stop-color="#B98D55" stop-opacity="0.55"/>
        <stop offset="0.5" stop-color="#B98D55" stop-opacity="0.12"/>
        <stop offset="1" stop-color="#B98D55" stop-opacity="0"/>
      </radialGradient>
    </defs>
<rect width="1000" height="800" fill="url(#bg)"/>
<rect width="1000" height="800" fill="url(#glow)"/>
<circle cx="735.7" cy="621.8" r="2.2" fill="#d0a869" opacity="0.39"/>
<circle cx="654.3" cy="477.2" r="1.7" fill="#e2703a" opacity="0.50"/>
<circle cx="439.4" cy="589.3" r="4.0" fill="#d0a869" opacity="0.50"/>
<circle cx="467.3" cy="516.2" r="1.6" fill="#d0a869" opacity="0.56"/>
<circle cx="982.3" cy="649.9" r="2.2" fill="#e2703a" opacity="0.69"/>
<circle cx="328.1" cy="695.1" r="2.6" fill="#d0a869" opacity="0.49"/>
<circle cx="584.6" cy="536.3" r="1.2" fill="#d0a869" opacity="0.70"/>
<circle cx="988.8" cy="574.5" r="3.2" fill="#d0a869" opacity="0.49"/>
<circle cx="605.6" cy="440.3" r="1.3" fill="#e2703a" opacity="0.65"/>
<circle cx="15.7" cy="630.3" r="1.7" fill="#d0a869" opacity="0.49"/>
<circle cx="802.5" cy="486.0" r="1.3" fill="#d0a869" opacity="0.74"/>
<circle cx="22.5" cy="794.6" r="1.9" fill="#d0a869" opacity="0.50"/>
<circle cx="652.7" cy="584.2" r="2.1" fill="#e2703a" opacity="0.68"/>
<circle cx="498.0" cy="658.6" r="1.0" fill="#d0a869" opacity="0.50"/>
<circle cx="905.4" cy="521.0" r="1.4" fill="#e2703a" opacity="0.43"/>
<circle cx="781.3" cy="740.0" r="2.6" fill="#e2703a" opacity="0.39"/>
<circle cx="564.1" cy="506.0" r="2.0" fill="#e2703a" opacity="0.55"/>
<circle cx="0.9" cy="528.9" r="3.4" fill="#e2703a" opacity="0.54"/>
<circle cx="584.9" cy="665.8" r="2.0" fill="#e2703a" opacity="0.30"/>
<circle cx="915.9" cy="688.9" r="2.0" fill="#d0a869" opacity="0.58"/>
<circle cx="84.4" cy="535.0" r="1.8" fill="#e2703a" opacity="0.72"/>
<circle cx="457.5" cy="760.2" r="3.6" fill="#d0a869" opacity="0.63"/>
<g transform="translate(500.0,320.0)" opacity="0.14" fill="none" stroke="#d0a869" stroke-width="20.0" stroke-linecap="round">
      <path d="M0,200 C -200,80 -180,-120 0,-200 C 180,-120 200,80 0,200 Z"/>
      <path d="M0,128 C -112,32 -104,-80 0,-128 C 112,-80 104,32 0,128 Z"/>
    </g>
<filter id="g"><feTurbulence type="fractalNoise" baseFrequency="0.9" numOctaves="2" stitchTiles="stitch"/><feColorMatrix type="saturate" values="0"/></filter><rect width="1000" height="800" filter="url(#g)" opacity="0.05"/>
<text x="500" y="688" text-anchor="middle" font-family="Georgia, 'Cormorant Garamond', serif" font-size="22" letter-spacing="4.8" fill="#d0a869" opacity="0.85" style="text-transform:uppercase">Pâtes fraîches</text>
  <text x="500" y="752" text-anchor="middle" font-family="Georgia, 'Cormorant Garamond', serif" font-style="italic" font-size="40" fill="#F6F0E4" opacity="0.95">Fatto in casa</text>
</svg>