<svg xmlns="http://www.w3.org/2000/svg" viewBox="0 0 1000 800" width="1000" height="800" role="img">
<defs>
      <linearGradient id="bg" x1="0" y1="0" x2="0" y2="1">
        <stop offset="0" stop-color="#16364A"/><stop offset="1" stop-color="#0f2634"/>
      </linearGradient>
      <radialGradient id="glow" cx="0.5" cy="1" r="0.9">
        <stop offset="0" stop-color="#B98D55" stop-opacity="0.55"/>
        <stop offset="0.5" stop-color="#B98D55" stop-opacity="0.12"/>
        <stop offset="1" stop-color="#B98D55" stop-opacity="0"/>
      </radialGradient>
    </defs>
<rect width="1000" height="800" fill="url(#bg)"/>
<rect width="1000" height="800" fill="url(#glow)"/>
<circle cx="902.1" cy="710.8" r="2.3" fill="#d0a869" opacity="0.55"/>
<circle cx="516.3" cy="675.5" r="3.2" fill="#d0a869" opacity="0.74"/>
<circle cx="956.0" cy="506.0" r="1.7" fill="#d0a869" opacity="0.42"/>
<circle cx="416.2" cy="636.6" r="2.1" fill="#d0a869" opacity="0.37"/>
<circle cx="351.8" cy="586.3" r="2.4" fill="#d0a869" opacity="0.28"/>
<circle cx="386.3" cy="656.1" r="3.6" fill="#d0a869" opacity="0.69"/>
<circle cx="574.4" cy="553.6" r="4.1" fill="#e2703a" opacity="0.67"/>
<circle cx="294.0" cy="750.3" r="1.6" fill="#d0a869" opacity="0.60"/>
<circle cx="998.0" cy="765.4" r="1.6" fill="#e2703a" opacity="0.40"/>
<circle cx="58.6" cy="753.9" r="3.7" fill="#e2703a" opacity="0.37"/>
<circle cx="436.8" cy="692.8" r="4.0" fill="#d0a869" opacity="0.57"/>
<circle cx="597.2" cy="508.9" r="1.1" fill="#d0a869" opacity="0.69"/>
<circle cx="310.8" cy="625.4" r="1.6" fill="#e2703a" opacity="0.72"/>
<circle cx="932.4" cy="688.6" r="2.1" fill="#e2703a" opacity="0.27"/>
<circle cx="679.7" cy="736.5" r="4.1" fill="#e2703a" opacity="0.55"/>
<circle cx="496.9" cy="554.0" r="3.0" fill="#e2703a" opacity="0.71"/>
<circle cx="657.0" cy="489.3" r="3.5" fill="#d0a869" opacity="0.44"/>
<circle cx="273.2" cy="536.1" r="2.0" fill="#e2703a" opacity="0.26"/>
<circle cx="766.4" cy="547.4" r="1.3" fill="#d0a869" opacity="0.25"/>
<circle cx="627.5" cy="485.3" r="1.7" fill="#d0a869" opacity="0.45"/>
<circle cx="28.6" cy="530.7" r="3.6" fill="#d0a869" opacity="0.63"/>
<circle cx="394.7" cy="782.6" r="4.0" fill="#d0a869" opacity="0.48"/>
<g transform="translate(500.0,320.0)" opacity="0.14" fill="none" stroke="#d0a869" stroke-width="20.0" stroke-linecap="round">
      <path d="M0,200 C -200,80 -180,-120 0,-200 C 180,-120 200,80 0,200 Z"/>
      <path d="M0,128 C -112,32 -104,-80 0,-128 C 112,-80 104,32 0,128 Z"/>
    </g>
<filter id="g"><feTurbulence type="fractalNoise" baseFrequency="0.9" numOctaves="2" stitchTiles="stitch"/><feColorMatrix type="saturate" values="0"/></filter><rect width="1000" height="800" filter="url(#g)" opacity="0.05"/>
<text x="500" y="688" text-anchor="middle" font-family="Georgia, 'Cormorant Garamond', serif" font-size="22" letter-spacing="4.8" fill="#d0a869" opacity="0.85" style="text-transform:uppercase">L'instant</text>
  <text x="500" y="752" text-anchor="middle" font-family="Georgia, 'Cormorant Garamond', serif" font-style="italic" font-size="40" fill="#F6F0E4" opacity="0.95">Douceurs</text>
</svg>