<svg xmlns="http://www.w3.org/2000/svg" viewBox="0 0 900 1100" width="900" height="1100" role="img">
<defs>
      <linearGradient id="bg" x1="0" y1="0" x2="0" y2="1">
        <stop offset="0" stop-color="#16364A"/><stop offset="1" stop-color="#0b1d28"/>
      </linearGradient>
      <radialGradient id="glow" cx="0.5" cy="1" r="0.9">
        <stop offset="0" stop-color="#e2703a" stop-opacity="0.55"/>
        <stop offset="0.5" stop-color="#e2703a" stop-opacity="0.12"/>
        <stop offset="1" stop-color="#e2703a" stop-opacity="0"/>
      </radialGradient>
    </defs>
<rect width="900" height="1100" fill="url(#bg)"/>
<rect width="900" height="1100" fill="url(#glow)"/>
<rect x="153" y="770" width="18" height="308" rx="9" fill="#c0392b" opacity="0.35"/>
<rect x="252" y="770" width="18" height="308" rx="9" fill="#c0392b" opacity="0.35"/>
<rect x="351" y="770" width="18" height="308" rx="9" fill="#c0392b" opacity="0.35"/>
<rect x="450" y="770" width="18" height="308" rx="9" fill="#c0392b" opacity="0.35"/>
<rect x="549" y="770" width="18" height="308" rx="9" fill="#c0392b" opacity="0.35"/>
<rect x="648" y="770" width="18" height="308" rx="9" fill="#c0392b" opacity="0.35"/>
<rect x="747" y="770" width="18" height="308" rx="9" fill="#c0392b" opacity="0.35"/>
<circle cx="211.3" cy="726.9" r="2.6" fill="#d0a869" opacity="0.37"/>
<circle cx="216.1" cy="979.0" r="3.2" fill="#e2703a" opacity="0.74"/>
<circle cx="890.2" cy="961.8" r="3.3" fill="#d0a869" opacity="0.26"/>
<circle cx="282.6" cy="711.4" r="3.0" fill="#e2703a" opacity="0.51"/>
<circle cx="81.7" cy="631.2" r="2.8" fill="#d0a869" opacity="0.47"/>
<circle cx="452.4" cy="794.8" r="2.4" fill="#d0a869" opacity="0.59"/>
<circle cx="498.6" cy="808.8" r="3.5" fill="#d0a869" opacity="0.59"/>
<circle cx="813.9" cy="1020.2" r="1.6" fill="#e2703a" opacity="0.31"/>
<circle cx="704.3" cy="956.3" r="2.2" fill="#d0a869" opacity="0.40"/>
<circle cx="130.1" cy="881.6" r="1.2" fill="#d0a869" opacity="0.65"/>
<circle cx="634.8" cy="1026.6" r="3.0" fill="#e2703a" opacity="0.73"/>
<circle cx="672.0" cy="903.9" r="2.7" fill="#e2703a" opacity="0.58"/>
<circle cx="564.3" cy="973.0" r="3.8" fill="#d0a869" opacity="0.28"/>
<circle cx="721.2" cy="1029.5" r="4.1" fill="#d0a869" opacity="0.29"/>
<circle cx="205.5" cy="615.2" r="2.9" fill="#e2703a" opacity="0.29"/>
<circle cx="835.2" cy="745.3" r="3.6" fill="#d0a869" opacity="0.36"/>
<circle cx="758.7" cy="627.1" r="3.3" fill="#e2703a" opacity="0.71"/>
<circle cx="736.0" cy="756.8" r="2.3" fill="#d0a869" opacity="0.71"/>
<circle cx="116.4" cy="922.1" r="3.1" fill="#e2703a" opacity="0.65"/>
<circle cx="45.5" cy="1097.5" r="1.2" fill="#d0a869" opacity="0.69"/>
<circle cx="825.4" cy="718.0" r="4.1" fill="#d0a869" opacity="0.44"/>
<circle cx="242.1" cy="642.7" r="1.7" fill="#e2703a" opacity="0.70"/>
<g transform="translate(450.0,440.0)" opacity="0.14" fill="none" stroke="#d0a869" stroke-width="22.5" stroke-linecap="round">
      <path d="M0,225 C -225,90 -202,-135 0,-225 C 202,-135 225,90 0,225 Z"/>
      <path d="M0,144 C -126,36 -117,-90 0,-144 C 126,-90 117,36 0,144 Z"/>
    </g>
<filter id="g"><feTurbulence type="fractalNoise" baseFrequency="0.9" numOctaves="2" stitchTiles="stitch"/><feColorMatrix type="saturate" values="0"/></filter><rect width="900" height="1100" filter="url(#g)" opacity="0.05"/>
<text x="450" y="946" text-anchor="middle" font-family="Georgia, 'Cormorant Garamond', serif" font-size="31" letter-spacing="6.6" fill="#d0a869" opacity="0.85" style="text-transform:uppercase">À la potence, flambé</text>
  <text x="450" y="1034" text-anchor="middle" font-family="Georgia, 'Cormorant Garamond', serif" font-style="italic" font-size="55" fill="#F6F0E4" opacity="0.95">Gambas à la Potence</text>
</svg>